<svg width="1440" height="216" viewBox="0 0 1440 216" fill="none" xmlns="http://www.w3.org/2000/svg">
<rect width="1440" height="216" fill="black"/>
<g clip-path="url(#clip0_4_156)">
<path d="M1274.78 92H1247.22C1244.89 92 1243 93.8925 1243 96.2188V123.781C1243 126.107 1244.89 128 1247.22 128H1274.78C1277.11 128 1279 126.107 1279 123.781V96.2188C1279 93.8925 1277.11 92 1274.78 92ZM1276.19 123.781C1276.19 124.557 1275.56 125.188 1274.78 125.188H1266.77V113.727H1271.11L1271.83 109.367H1266.77V106.344C1266.77 105.15 1267.68 104.234 1268.88 104.234H1271.76V99.875H1268.88C1265.29 99.875 1262.41 102.775 1262.41 106.356V109.367H1258.19V113.727H1262.41V125.188H1247.22C1246.44 125.188 1245.81 124.557 1245.81 123.781V96.2188C1245.81 95.4433 1246.44 94.8125 1247.22 94.8125H1274.78C1275.56 94.8125 1276.19 95.4433 1276.19 96.2188V123.781Z" fill="white"/>
</g>
<g clip-path="url(#clip1_4_156)">
<path d="M1186.96 102.584C1186.88 100.671 1186.57 99.3562 1186.13 98.2167C1185.67 97.0072 1184.97 95.9243 1184.05 95.024C1183.15 94.1098 1182.06 93.3994 1180.86 92.9494C1179.71 92.5063 1178.41 92.197 1176.49 92.1126C1174.57 92.0212 1173.95 92 1169.07 92C1164.18 92 1163.57 92.0212 1161.65 92.1055C1159.73 92.1898 1158.42 92.4994 1157.28 92.9423C1156.07 93.3994 1154.99 94.1026 1154.09 95.024C1153.17 95.9243 1152.46 97.0143 1152.01 98.2099C1151.57 99.3562 1151.26 100.664 1151.18 102.577C1151.08 104.504 1151.06 105.116 1151.06 110.004C1151.06 114.891 1151.08 115.503 1151.17 117.423C1151.25 119.336 1151.56 120.651 1152.01 121.79C1152.46 123 1153.17 124.083 1154.09 124.983C1154.99 125.897 1156.08 126.608 1157.27 127.058C1158.42 127.501 1159.73 127.81 1161.64 127.894C1163.56 127.979 1164.17 128 1169.06 128C1173.95 128 1174.56 127.979 1176.48 127.894C1178.39 127.81 1179.71 127.501 1180.85 127.058C1183.27 126.122 1185.18 124.209 1186.11 121.79C1186.56 120.644 1186.87 119.336 1186.95 117.423C1187.04 115.503 1187.06 114.891 1187.06 110.004C1187.06 105.116 1187.05 104.504 1186.96 102.584ZM1183.72 117.282C1183.65 119.04 1183.35 119.99 1183.1 120.623C1182.5 122.191 1181.25 123.436 1179.69 124.041C1179.05 124.287 1178.1 124.582 1176.35 124.659C1174.45 124.744 1173.88 124.765 1169.07 124.765C1164.27 124.765 1163.69 124.744 1161.8 124.659C1160.04 124.582 1159.09 124.287 1158.46 124.041C1157.68 123.752 1156.97 123.295 1156.39 122.697C1155.8 122.114 1155.34 121.41 1155.05 120.63C1154.8 119.997 1154.51 119.04 1154.43 117.289C1154.35 115.391 1154.33 114.821 1154.33 110.018C1154.33 105.214 1154.35 104.638 1154.43 102.746C1154.51 100.988 1154.8 100.038 1155.05 99.4054C1155.34 98.6247 1155.8 97.9145 1156.4 97.3377C1156.98 96.7399 1157.69 96.2828 1158.47 95.9946C1159.1 95.7484 1160.06 95.4531 1161.81 95.3757C1163.71 95.2913 1164.28 95.2702 1169.08 95.2702C1173.89 95.2702 1174.46 95.2913 1176.35 95.3757C1178.11 95.4531 1179.06 95.7484 1179.69 95.9946C1180.47 96.2828 1181.18 96.7399 1181.76 97.3377C1182.36 97.9214 1182.82 98.6247 1183.1 99.4054C1183.35 100.038 1183.65 100.995 1183.72 102.746C1183.81 104.645 1183.83 105.214 1183.83 110.018C1183.83 114.821 1183.81 115.383 1183.72 117.282Z" fill="white"/>
<path d="M1169.07 100.756C1163.96 100.756 1159.82 104.898 1159.82 110.004C1159.82 115.109 1163.96 119.252 1169.07 119.252C1174.17 119.252 1178.31 115.109 1178.31 110.004C1178.31 104.898 1174.17 100.756 1169.07 100.756ZM1169.07 116.003C1165.75 116.003 1163.07 113.316 1163.07 110.004C1163.07 106.691 1165.75 104.005 1169.07 104.005C1172.38 104.005 1175.07 106.691 1175.07 110.004C1175.07 113.316 1172.38 116.003 1169.07 116.003Z" fill="white"/>
<path d="M1180.84 100.39C1180.84 101.582 1179.87 102.549 1178.68 102.549C1177.49 102.549 1176.52 101.582 1176.52 100.39C1176.52 99.1975 1177.49 98.2311 1178.68 98.2311C1179.87 98.2311 1180.84 99.1975 1180.84 100.39Z" fill="white"/>
</g>
<path d="M1350 92C1342.81 92 1336.96 97.8487 1336.96 105.038C1336.96 113.96 1348.63 127.057 1349.13 127.611C1349.59 128.13 1350.41 128.129 1350.87 127.611C1351.37 127.057 1363.04 113.96 1363.04 105.038C1363.04 97.8487 1357.19 92 1350 92ZM1350 111.597C1346.38 111.597 1343.44 108.655 1343.44 105.038C1343.44 101.421 1346.38 98.4782 1350 98.4782C1353.62 98.4782 1356.56 101.421 1356.56 105.038C1356.56 108.655 1353.62 111.597 1350 111.597Z" fill="white"/>
<defs>
<clipPath id="clip0_4_156">
<rect width="36" height="36" fill="white" transform="translate(1243 92)"/>
</clipPath>
<clipPath id="clip1_4_156">
<rect width="36" height="36" fill="white" transform="translate(1151 92)"/>
</clipPath>
</defs>
</svg>
